<?xml version="1.0" encoding="UTF-8"?>
<svg width="23px" height="22px" viewBox="0 0 23 22" version="1.1" xmlns="http://www.w3.org/2000/svg" xmlns:xlink="http://www.w3.org/1999/xlink">
    <!-- Generator: Sketch 45.2 (43514) - http://www.bohemiancoding.com/sketch -->
    <title>deer copy</title>
    <desc>Created with Sketch.</desc>
    <defs></defs>
    <g id="Page-1" stroke="none" stroke-width="1" fill="none" fill-rule="evenodd">
        <g id="deer-copy">
            <rect id="Rectangle-2" fill="#FFFFFF" x="8" y="12" width="3" height="3"></rect>
            <rect id="Rectangle-2-Copy" fill="#FFFFFF" x="11" y="12" width="3" height="3"></rect>
            <g id="Group-4" fill="#373245">
                <path d="M0,4.30314894 L0,2.45830663 L0.883502866,2.45830663 L0.883502866,4.30314894 L0,4.30314894 Z M17.3044396,9.59059829 L17.3044396,0.535572802 L18.1879425,0.535572802 L18.1879425,9.59059829 L17.3044396,9.59059829 Z" id="Fill-1"></path>
                <polygon id="Fill-2" points="0 4.30314894 6.17100715 4.30314894 6.17100715 3.41964607 0 3.41964607"></polygon>
                <polygon id="Fill-3" points="2.88407327 1.4191306 3.76757614 1.4191306 3.76757614 0.0548756133 2.88407327 0.0548756133"></polygon>
                <polygon id="Fill-4" points="3.20019855 1.41907567 6.17095222 1.41907567 6.17095222 0.535572802 3.20019855 0.535572802"></polygon>
                <polygon id="Fill-5" points="8.17152263 2.8611123 9.05502549 2.8611123 9.05502549 1.49691225 8.17152263 1.49691225"></polygon>
                <polygon id="Fill-6" points="5.28744935 10.0712955 6.17095222 10.0712955 6.17095222 1.08108803 5.28744935 1.08108803"></polygon>
                <polygon id="Fill-7" points="5.48887966 2.8611123 8.45979812 2.8611123 8.45979812 1.97760944 5.48887966 1.97760944"></polygon>
                <polygon id="Fill-8" points="3.36471553 7.6679194 4.2482184 7.6679194 4.2482184 5.82307709 3.36471553 5.82307709"></polygon>
                <polygon id="Fill-9" points="3.56614583 7.6679194 5.69025503 7.6679194 5.69025503 6.78441653 3.56614583 6.78441653"></polygon>
                <polygon id="Fill-10" points="5.76814654 6.70652502 10.0164199 6.70652502 10.0164199 5.82302216 5.76814654 5.82302216"></polygon>
                <polygon id="Fill-11" points="9.132917 6.20984305 10.0164199 6.20984305 10.0164199 4.38098552 9.132917 4.38098552"></polygon>
                <polygon id="Fill-12" points="5.78198904 10.0712955 8.09368605 10.0712955 8.09368605 9.18779262 5.78198904 9.18779262"></polygon>
                <polygon id="Fill-13" points="7.21018318 11.1105264 8.09368605 11.1105264 8.09368605 9.59065323 7.21018318 9.59065323"></polygon>
                <polygon id="Fill-14" points="14.4203664 11.1105264 15.3038692 11.1105264 15.3038692 9.18779262 14.4203664 9.18779262"></polygon>
                <polygon id="Fill-15" points="14.8621178 10.0712955 18.1879425 10.0712955 18.1879425 9.18779262 14.8621178 9.18779262"></polygon>
                <polygon id="Fill-16" points="19.7078157 8.14861659 20.5913186 8.14861659 20.5913186 6.30377428 19.7078157 6.30377428"></polygon>
                <polygon id="Fill-17" points="17.3044396 8.14861659 20.1885129 8.14861659 20.1885129 7.26511372 17.3044396 7.26511372"></polygon>
                <polygon id="Fill-19" points="22.1111369 3.82245175 22.9946397 3.82245175 22.9946397 1.97760944 22.1111369 1.97760944"></polygon>
                <polygon id="Fill-20" points="17.7850819 3.82245175 22.591889 3.82245175 22.591889 2.93894888 17.7850819 2.93894888"></polygon>
                <polygon id="Fill-21" points="13.9396692 6.70652502 14.823172 6.70652502 14.823172 4.86168271 13.9396692 4.86168271"></polygon>
                <polygon id="Fill-22" points="14.1410995 6.70652502 17.7461911 6.70652502 17.7461911 5.82302216 14.1410995 5.82302216"></polygon>
                <polygon id="Fill-23" points="15.3817058 3.33324033 17.6743968 3.33324033 17.6743968 2.45830663 15.3817058 2.45830663"></polygon>
                <polygon id="Fill-24" points="15.3817058 2.97619179 16.2599353 2.97619179 16.2599353 1.49691225 15.3817058 1.49691225"></polygon>
                <polygon id="Fill-25" points="17.6743968 1.41907567 20.5913186 1.41907567 20.5913186 0.535572802 17.6743968 0.535572802"></polygon>
                <polygon id="Fill-26" points="19.7078157 1.01626999 20.5913186 1.01626999 20.5913186 0.0549305438 19.7078157 0.0549305438"></polygon>
            </g>
            <polygon id="Fill-27" fill="#000038" points="9.132917 14.475242 10.0164199 14.475242 10.0164199 13.5139025 9.132917 13.5139025"></polygon>
            <polygon id="Fill-28" fill="#000038" points="12.4976325 14.475242 13.3811354 14.475242 13.3811354 13.5139025 12.4976325 13.5139025"></polygon>
            <polygon id="Fill-29" fill="#000038" points="8.57438323 17.3577223 13.9396692 17.3577223 13.9396692 16.8007815 8.57438323 16.8007815"></polygon>
            <polygon id="Fill-30" fill="#000038" points="9.05502549 17.8367715 13.458972 17.8367715 13.458972 17.2814787 9.05502549 17.2814787"></polygon>
            <polygon id="Fill-31" fill="#000038" points="9.53572268 18.3207096 12.9783297 18.3207096 12.9783297 17.7621759 9.53572268 17.7621759"></polygon>
            <polygon id="Fill-32" fill="#000038" points="10.4970621 18.798111 12.0169353 18.798111 12.0169353 18.2428181 10.4970621 18.2428181"></polygon>
            <polygon id="Fill-33" fill="#000038" points="10.9777593 19.28529 11.5362931 19.28529 11.5362931 18.7267562 10.9777593 18.7267562"></polygon>
            <path d="M12.0169353,20.1525883 L13.3811354,20.1525883 L13.3811354,20.6397673 L12.9004382,20.6397673 L12.9004382,21.1139278 L9.61355926,21.1139278 L9.61355926,20.6397673 L9.132917,20.6397673 L9.132917,20.1525883 L10.4970621,20.1525883 L10.4970621,19.6783729 L12.0169353,19.6783729 L12.0169353,20.1525883 Z M10.9777593,19.678318 L10.9777593,19.28529 L11.5362931,19.28529 L11.5362931,19.678318 L10.9777593,19.678318 Z" id="Combined-Shape" fill="#2945BB"></path>
            <path d="M13.9396692,12.6727236 L13.9396692,12.4746716 L11.9390988,12.4746716 L11.9390988,14.475242 L10.5749536,14.475242 L10.5749536,12.4746716 L8.57427337,12.4746716 L8.57427337,14.475242 L13.9396692,14.475242 L13.9396692,12.6727236 Z M15.3038692,12.6727236 L15.3038692,16.7980899 L14.1605449,16.7980899 L7.21018318,16.7980899 L7.21018318,14.7886757 L7.21018318,11.1105264 L8.372898,11.1105264 L15.3038692,11.1105264 L15.3038692,12.2732687 L15.3038692,12.6727236 Z M14.6695313,16.8007815 L13.9396692,16.8007815 L13.9396692,17.3593152 L13.458972,17.3593152 L13.458972,17.8400124 L12.9783297,17.8400124 L12.9783297,18.3238956 L12.0202312,18.3238956 L12.0202312,18.8013519 L11.5362382,18.8013519 L11.5362382,19.6819434 L12.0202312,19.6819434 L12.0202312,20.165497 L13.8618326,20.165497 L13.8618326,19.2042125 L14.3424748,19.2042125 L14.3424748,18.7268111 L14.823172,18.7268111 L14.823172,18.2395772 L15.3038692,18.2395772 L15.3038692,16.8007815 L14.6695313,16.8007815 Z M7.69088037,18.2428181 L7.21012825,18.2428181 L7.21012825,16.8007815 L7.8693497,16.8007815 L8.57438323,16.8007815 L8.57438323,17.3577223 L8.85365012,17.3577223 L8.85365012,17.3593152 L9.05502549,17.3593152 L9.05502549,17.8368265 L9.53566775,17.8368265 L9.53566775,18.3238956 L10.4970621,18.3238956 L10.4970621,20.1525334 L9.53566775,20.1525334 L8.75504979,20.1525883 L8.75504979,20.1007888 L8.65221981,20.1007888 L8.65221981,19.2009716 L8.17157756,19.2009716 L8.17157756,18.7235153 L7.69088037,18.7235153 L7.69088037,18.2428181 Z M10.4970621,19.678318 L10.4970621,18.798111 L10.9777044,18.798111 L10.9777044,19.678318 L10.4970621,19.678318 Z" id="Combined-Shape" fill="#476AFC"></path>
            <path d="M3.84546765,11.5911687 L3.84546765,11.1105264 L7.21018318,11.1105264 L7.21018318,11.5911687 L3.84546765,11.5911687 Z M4.32610991,12.0718659 L4.32610991,11.5911687 L7.21018318,11.5911687 L7.21018318,12.0718659 L4.32610991,12.0718659 Z M4.8068071,12.5935962 L4.8068071,12.0718659 L7.21018318,12.0718659 L7.21018318,12.5935962 L4.8068071,12.5935962 Z" id="Combined-Shape" fill="#2945BB"></path>
            <path d="M15.3038692,11.5911687 L15.3038692,11.1105264 L18.6685848,11.1105264 L18.6685848,11.5911687 L15.3038692,11.5911687 Z M15.3038692,12.0718659 L15.3038692,11.5911687 L18.1879425,11.5911687 L18.1879425,12.0718659 L15.3038692,12.0718659 Z M15.3038692,12.5935962 L15.3038692,12.0718659 L17.7072453,12.0718659 L17.7072453,12.5935962 L15.3038692,12.5935962 Z" id="Combined-Shape" fill="#2945BB"></path>
        </g>
    </g>
</svg>